<svg width="254" height="425" viewBox="0 0 254 425" fill="none" xmlns="http://www.w3.org/2000/svg">
<path d="M212.5 0C218.136 0 223.541 2.23883 227.526 6.22398C231.511 10.2091 233.75 15.6141 233.75 21.25C233.75 26.8858 231.511 32.2909 227.526 36.276C223.541 40.2612 218.136 42.5 212.5 42.5C178.877 42.5 146.009 52.4703 118.053 71.1502C90.0967 89.83 68.3074 116.38 55.4405 147.444C42.5736 178.507 39.207 212.689 45.7665 245.665C52.326 278.642 68.5169 308.933 92.2918 332.708C116.067 356.483 146.358 372.674 179.335 379.234C212.311 385.793 246.493 382.426 277.556 369.56C308.62 356.693 335.17 334.903 353.85 306.947C372.53 278.991 382.5 246.123 382.5 212.5C382.5 206.864 384.739 201.459 388.724 197.474C392.709 193.489 398.114 191.25 403.75 191.25C409.386 191.25 414.791 193.489 418.776 197.474C422.761 201.459 425 206.864 425 212.5C425 329.864 329.864 425 212.5 425C95.1363 425 0 329.864 0 212.5C0 95.1363 95.1363 0 212.5 0ZM212.5 85C218.136 85 223.541 87.2388 227.526 91.224C231.511 95.2091 233.75 100.614 233.75 106.25C233.75 111.886 231.511 117.291 227.526 121.276C223.541 125.261 218.136 127.5 212.5 127.5C195.689 127.5 179.255 132.485 165.277 141.825C151.298 151.165 140.404 164.44 133.97 179.972C127.537 195.504 125.853 212.594 129.133 229.083C132.413 245.571 140.508 260.717 152.396 272.604C164.283 284.492 179.429 292.587 195.917 295.867C212.406 299.146 229.496 297.463 245.028 291.03C260.56 284.596 273.835 273.702 283.175 259.723C292.515 245.745 297.5 229.311 297.5 212.5C297.5 206.864 299.739 201.459 303.724 197.474C307.709 193.489 313.114 191.25 318.75 191.25C324.386 191.25 329.791 193.489 333.776 197.474C337.761 201.459 340 206.864 340 212.5C340 237.717 332.522 262.368 318.512 283.335C304.502 304.302 284.59 320.644 261.292 330.295C237.995 339.945 212.359 342.47 187.626 337.55C162.893 332.63 140.175 320.487 122.344 302.656C104.513 284.825 92.3695 262.107 87.4499 237.374C82.5303 212.641 85.0552 187.005 94.7054 163.708C104.356 140.41 120.698 120.498 141.665 106.488C162.632 92.4777 187.283 85 212.5 85ZM352.134 2.125C354.952 2.125 357.654 3.24442 359.647 5.23699C361.639 7.22956 362.759 9.93207 362.759 12.75V51.6375C362.764 54.4517 363.886 57.1488 365.878 59.1368C367.87 61.1248 370.569 62.2413 373.384 62.2412H412.25C415.068 62.2412 417.77 63.3607 419.763 65.3532C421.756 67.3458 422.875 70.0483 422.875 72.8662V92.31L382.755 132.43C374.787 140.401 363.978 144.88 352.707 144.882H310.207L227.545 227.524C223.537 231.395 218.169 233.536 212.598 233.488C207.026 233.44 201.696 231.205 197.756 227.265C193.816 223.325 191.582 217.995 191.533 212.424C191.485 206.852 193.627 201.484 197.497 197.476L280.16 114.835V72.335C280.157 61.0673 284.628 50.2594 292.591 42.2875L332.754 2.125H352.134Z" fill="#A8C9FF"/>
</svg>
