<svg width="283" height="425" viewBox="0 0 283 425" fill="none" xmlns="http://www.w3.org/2000/svg">
<path d="M-84.6796 0L-107.006 22.4702L-73.7857 55.9358L-51.4906 33.4656L-84.6796 0ZM206.695 0L173.475 33.4656L195.786 55.9358L228.991 22.4862L206.695 0ZM61 9.97255C55.7671 10.0152 50.4814 10.3561 45.1429 10.9954H44.6671C-19.6494 18.4268 -70.8363 70.7987 -79.7321 135.333C-86.8361 187.273 -65.5876 234.371 -30.1786 264.704C-15.6965 277.164 -5.90005 294.259 -2.42857 313.128V409.018H33.7257C39.244 418.559 49.3133 425 61 425C72.6867 425 82.756 418.559 88.2743 409.018H124.429V345.092H125.919V326.106C125.919 302.676 138.002 279.056 157.633 260.693C183.893 234.195 203.714 196.558 203.714 153.328C203.714 74.3786 139.239 9.23739 61 9.97255ZM61 41.9359C122.288 41.0728 172 91.6388 172 153.328C172 186.794 156.619 216.264 135.322 237.711L135.83 238.222C114.675 257.898 100.992 284.394 97.1384 313.144H27.7793C24.2907 285.752 12.6357 259.238 -9.38986 240.22C-37.4094 216.248 -54.107 180.129 -48.5253 139.344C-41.5957 89.0018 -1.06485 48.5203 48.5997 42.9747C52.7004 42.4015 56.8297 42.06 60.9683 41.9518L61 41.9359ZM-161 153.328V185.291H-113.429V153.328H-161ZM235.429 153.328V185.291H283V153.328H235.429ZM-73.7857 282.683L-106.991 316.133L-84.6796 338.619L-51.5064 305.154L-73.7857 282.683ZM195.786 282.683L173.491 305.154L206.68 338.619L228.991 316.133L195.786 282.683ZM29.2857 345.108H92.7143V377.071H29.2857V345.108Z" fill="#A8C9FF"/>
</svg>
