<svg width="88" height="84" viewBox="0 0 88 84" fill="none" xmlns="http://www.w3.org/2000/svg">
<path d="M15.0406 0L10.6406 4.39375L17.1875 10.9375L21.5813 6.54375L15.0406 0ZM72.4625 0L65.9156 6.54375L70.3125 10.9375L76.8562 4.39688L72.4625 0ZM43.75 1.95C42.7188 1.95833 41.6771 2.025 40.625 2.15H40.5312C27.8563 3.60313 17.7687 13.8437 16.0156 26.4625C14.6156 36.6187 18.8031 45.8281 25.7812 51.7594C28.6353 54.1958 30.5659 57.5385 31.25 61.2281V79.9781H38.375C39.4625 81.8438 41.4469 83.1031 43.75 83.1031C46.0531 83.1031 48.0375 81.8438 49.125 79.9781H56.25V67.4781H56.5438V63.7656C56.5438 59.1844 58.925 54.5656 62.7938 50.975C67.9688 45.7938 71.875 38.4344 71.875 29.9812C71.875 14.5437 59.1688 1.80625 43.75 1.95ZM43.75 8.2C55.8281 8.03125 65.625 17.9188 65.625 29.9812C65.625 36.525 62.5938 42.2875 58.3969 46.4813L58.4969 46.5812C54.3279 50.4285 51.6313 55.6094 50.8719 61.2313H37.2031C36.5156 55.875 34.2188 50.6906 29.8781 46.9719C24.3562 42.2844 21.0656 35.2219 22.1656 27.2469C23.5313 17.4031 31.5188 9.4875 41.3063 8.40312C42.1144 8.29105 42.9282 8.22429 43.7438 8.20313L43.75 8.2ZM0 29.9812V36.2313H9.375V29.9812H0ZM78.125 29.9812V36.2313H87.5V29.9812H78.125ZM17.1875 55.275L10.6438 61.8156L15.0406 66.2125L21.5781 59.6688L17.1875 55.275ZM70.3125 55.275L65.9187 59.6688L72.4594 66.2125L76.8562 61.8156L70.3125 55.275ZM37.5 67.4812H50V73.7312H37.5V67.4812Z" fill="#3B82F6"/>
</svg>
