<svg width="1920" height="277" viewBox="0 0 1920 277" fill="none" xmlns="http://www.w3.org/2000/svg">
<path d="M-74.5 116.049C-32 144.049 86.9 191.649 222.5 158.049C392 116.049 526.5 8.0489 757 116.049C840.833 162.882 1046.1 239.549 1196.5 171.549C1384.5 86.5489 1417 -9.45109 1593.5 39.5489C1770 88.5489 1774 304.549 1954.5 273.049C2135 241.549 2126 69.5489 2094 39.5489" stroke="#E1EAFF"/>
<path d="M-30 0.250977C14.6667 77.251 152.1 233.551 344.5 242.751C585 254.251 696.5 95.751 976.5 146.751C1256.5 197.751 1354.5 214.251 1535 169.251C1715.5 124.251 1780 218.251 1949 210.751C2118 203.251 2175 148.751 2156 37.751" stroke="#E1EAFF"/>
<path d="M-73.3643 108.295C-31.3791 136.563 85.6479 184.437 219.42 152.967C386.227 113.312 519.398 9.12463 746.47 114.485C834.302 160.417 1037.18 231.08 1190.88 166.118C1381.23 84.5895 1415.4 -8.53874 1592.01 38.0617C1768.61 84.6622 1774.15 297.548 1954.36 266.661C2134.57 235.773 2127.25 66.7726 2095.58 34.7049" stroke="#E1EAFF"/>
<path d="M-72.1299 99.8762C-30.704 128.435 84.2878 176.607 216.074 147.452C379.954 110.344 511.682 10.2999 735.029 112.793C827.207 157.744 1027.48 221.885 1184.78 160.223C1377.68 82.4669 1413.67 -7.54097 1590.38 36.4523C1767.1 80.4456 1774.32 289.948 1954.21 259.726C2134.09 229.504 2128.61 63.7625 2097.3 29.4482" stroke="#E1EAFF"/>
<path d="M-70.7969 91.1021C-29.9749 119.976 82.8197 168.468 212.461 141.812C373.182 107.455 503.352 11.8839 722.677 111.28C819.546 155.173 1017.01 212.272 1178.19 154.174C1373.85 80.4904 1411.8 -6.14859 1588.63 35.0298C1765.47 76.2082 1774.5 282.057 1954.04 252.554C2133.59 223.051 2130.08 60.8278 2099.16 24.0879" stroke="#E1EAFF"/>
<path d="M-69.3662 86.6006C-29.1927 115.812 81.2425 164.649 208.582 140.676C365.91 109.272 494.406 18.5046 709.413 114.576C811.32 157.333 1005.77 206.87 1171.12 152.599C1369.73 83.288 1409.79 0.266325 1586.75 38.4222C1763.71 76.5781 1774.69 278.504 1953.87 249.773C2133.04 221.041 2131.65 62.5964 2101.15 23.252" stroke="#E1EAFF"/>
<path d="M-67.8369 81.7895C-28.3564 111.362 79.5574 160.567 204.436 139.462C358.138 111.215 484.846 25.5801 695.238 118.098C802.528 159.641 993.756 201.097 1163.56 150.915C1365.34 86.2775 1407.64 7.12181 1584.74 42.0475C1761.84 76.9732 1774.9 274.707 1953.68 246.8C2132.45 218.893 2133.34 64.4863 2103.28 22.3584" stroke="#E1EAFF"/>
<path d="M-66.21 76.669C-27.467 106.625 77.7632 156.223 200.023 138.17C349.866 113.282 474.671 33.1102 680.151 121.847C793.171 162.097 980.969 194.953 1155.51 149.122C1360.65 89.4591 1405.36 14.4178 1582.6 45.9057C1759.85 77.3935 1775.12 270.665 1953.48 243.636C2131.83 216.607 2135.13 66.4975 2105.55 21.4072" stroke="#E1EAFF"/>
<path d="M-64.4834 71.2391C-26.5226 101.602 75.862 151.616 195.344 136.8C341.096 115.473 463.883 41.095 664.154 125.821C783.25 164.702 967.412 188.437 1146.98 147.222C1355.69 92.8327 1402.93 22.1544 1580.33 49.9967C1757.73 77.839 1775.35 266.379 1953.26 240.281C2131.17 214.183 2137.03 68.6301 2107.96 20.3984" stroke="#E1EAFF"/>
<path d="M-62.6602 65.5006C-25.526 96.2944 73.8509 146.748 190.398 135.352C331.825 117.791 452.478 49.5355 647.244 130.023C772.762 167.456 953.08 181.551 1137.96 145.213C1350.44 96.3993 1400.37 30.3326 1577.93 54.3217C1755.5 78.3108 1775.6 261.85 1953.04 236.736C2130.48 211.621 2139.04 70.885 2110.5 19.333" stroke="#E1EAFF"/>
<path d="M-60.7373 59.4527C-24.4743 90.7001 71.7327 141.617 185.186 133.826C322.055 120.233 440.46 58.4306 629.424 134.452C761.711 170.357 937.978 174.293 1128.46 143.097C1344.91 100.158 1397.67 38.9513 1575.41 58.8795C1753.14 78.8077 1775.86 257.076 1952.8 232.999C2129.74 208.921 2141.15 73.2612 2113.18 18.21" stroke="#E1EAFF"/>
<path d="M-58.7168 53.0953C-23.3696 84.8195 69.5055 136.223 179.707 132.222C311.785 122.8 427.827 67.7805 610.693 139.106C750.093 173.407 922.102 166.664 1118.47 140.872C1339.1 104.109 1394.83 48.0105 1572.75 63.6702C1750.67 79.3299 1776.13 252.059 1952.55 229.071C2128.97 206.083 2143.38 75.7587 2115.99 17.0293" stroke="#E1EAFF"/>
<path d="M-56.5977 46.4285C-22.2108 78.6527 67.1702 130.567 173.962 130.54C301.016 125.491 414.579 77.5851 591.05 143.987C737.911 176.606 905.455 158.664 1107.99 138.538C1333.01 108.251 1391.86 57.5103 1569.97 68.6939C1748.07 79.8774 1776.41 246.796 1952.29 224.952C2128.16 203.107 2145.71 78.3776 2118.94 15.791" stroke="#E1EAFF"/>
<path d="M-54.3799 39.4522C-20.9979 72.1995 64.727 124.649 167.951 128.779C289.747 128.307 400.717 87.8444 570.496 149.094C725.163 179.952 888.035 150.292 1097.03 136.096C1326.63 112.586 1388.74 67.4507 1567.05 73.9504C1745.36 80.45 1776.71 241.29 1952.01 220.641C2127.31 199.992 2148.15 81.1178 2122.03 14.4951" stroke="#E1EAFF"/>
<path d="M-52.0645 32.1673C-19.7319 65.4611 62.1748 118.468 161.672 126.941C277.978 131.249 386.24 98.5593 549.03 154.428C711.85 183.448 869.843 141.551 1085.58 133.547C1319.97 117.114 1385.49 77.8326 1564.01 79.4408C1742.52 81.0489 1777.02 235.54 1951.73 216.14C2126.43 196.74 2150.7 83.9802 2125.26 13.1426" stroke="#E1EAFF"/>
<path d="M-49.6504 24.5731C-18.4118 58.4364 59.5145 112.025 155.127 125.025C265.71 134.316 371.149 109.729 526.654 159.989C697.972 187.091 850.878 132.437 1073.65 130.889C1313.02 121.833 1382.1 88.6551 1560.83 85.164C1739.57 81.673 1777.35 229.546 1951.43 211.448C2125.51 193.35 2153.36 86.9641 2128.62 11.7324" stroke="#E1EAFF"/>
<path d="M-47.1387 16.6693C-17.0386 51.1255 56.7452 105.32 148.315 123.031C252.941 137.507 355.442 121.353 503.365 165.776C683.528 190.883 831.141 122.953 1061.23 128.123C1305.8 126.745 1378.57 99.9181 1557.53 91.1202C1736.49 82.3223 1777.69 223.308 1951.12 206.565C2124.55 189.822 2156.13 90.0692 2132.12 10.2646" stroke="#E1EAFF"/>
<path d="M-44.5273 8.73926C-15.6103 43.8114 53.8689 98.6351 141.238 121.242C239.674 141.106 339.122 133.715 479.167 172.072C668.521 195.107 810.632 113.38 1048.32 125.531C1298.29 132.132 1374.9 111.905 1554.1 97.5924C1733.29 83.28 1778.04 217.109 1950.8 201.773C2123.55 186.438 2159 93.5789 2135.76 9.02241" stroke="#E1EAFF"/>
<path d="M-41.8184 7.15625C-14.129 42.8676 50.8836 98.3441 133.894 126.031C225.907 151.486 322.187 153.189 454.056 185.251C652.947 206.135 789.35 110.093 1034.93 129.488C1290.5 144.367 1371.1 130.989 1550.54 110.954C1729.97 90.9195 1778.41 217.321 1950.46 203.447C2122.52 189.573 2161.99 103.866 2139.53 14.3791" stroke="#E1EAFF"/>
<path d="M-39.0117 5.5166C-12.5945 41.8903 47.7893 98.0434 126.282 130.994C211.64 162.244 304.637 173.37 428.033 198.909C636.808 217.564 767.296 106.687 1021.05 133.589C1282.42 157.048 1367.16 150.766 1546.85 124.801C1726.54 98.837 1778.78 217.543 1950.11 205.183C2121.44 192.822 2165.08 114.528 2143.44 19.9309" stroke="#E1EAFF"/>
<path d="M-36.1064 3.81836C-11.006 40.8776 44.587 97.731 118.404 136.131C196.873 173.378 286.472 194.256 401.1 213.044C620.103 229.392 744.469 103.16 1006.69 137.832C1274.06 170.171 1363.08 171.235 1543.03 139.133C1722.98 107.031 1779.18 217.771 1949.75 206.977C2120.33 196.184 2168.28 125.562 2147.49 25.6761" stroke="#E1EAFF"/>
<path d="M-33.1025 2.06348C-9.36336 39.8315 41.2767 97.4089 110.26 141.441C181.607 184.889 267.693 215.85 373.255 227.659C602.834 241.622 720.871 99.5154 991.836 142.22C1265.42 183.739 1358.86 192.397 1539.08 153.949C1719.3 115.502 1779.58 218.007 1949.38 208.834C2119.18 199.661 2171.58 136.97 2151.68 31.6164" stroke="#E1EAFF"/>
</svg>
