<svg width="84" height="84" viewBox="0 0 84 84" fill="none" xmlns="http://www.w3.org/2000/svg">
<path d="M41.6667 0C42.7717 0 43.8315 0.438987 44.6129 1.22039C45.3943 2.00179 45.8333 3.0616 45.8333 4.16667C45.8333 5.27174 45.3943 6.33154 44.6129 7.11294C43.8315 7.89435 42.7717 8.33333 41.6667 8.33333C35.074 8.33333 28.6293 10.2883 23.1477 13.951C17.666 17.6137 13.3936 22.8197 10.8707 28.9106C8.34776 35.0014 7.68765 41.7036 8.97382 48.1697C10.26 54.6357 13.4347 60.5751 18.0964 65.2369C22.7582 69.8986 28.6976 73.0733 35.1637 74.3595C41.6297 75.6457 48.3319 74.9856 54.4228 72.4627C60.5136 69.9397 65.7196 65.6673 69.3823 60.1857C73.045 54.704 75 48.2594 75 41.6667C75 40.5616 75.439 39.5018 76.2204 38.7204C77.0018 37.939 78.0616 37.5 79.1667 37.5C80.2717 37.5 81.3315 37.939 82.1129 38.7204C82.8943 39.5018 83.3333 40.5616 83.3333 41.6667C83.3333 64.6792 64.6792 83.3333 41.6667 83.3333C18.6542 83.3333 0 64.6792 0 41.6667C0 18.6542 18.6542 0 41.6667 0ZM41.6667 16.6667C42.7717 16.6667 43.8315 17.1057 44.6129 17.8871C45.3943 18.6685 45.8333 19.7283 45.8333 20.8333C45.8333 21.9384 45.3943 22.9982 44.6129 23.7796C43.8315 24.561 42.7717 25 41.6667 25C38.3703 25 35.148 25.9775 32.4072 27.8088C29.6663 29.6402 27.5301 32.2432 26.2687 35.2886C25.0072 38.334 24.6772 41.6852 25.3202 44.9182C25.9633 48.1512 27.5507 51.1209 29.8816 53.4518C32.2124 55.7827 35.1821 57.37 38.4152 58.0131C41.6482 58.6562 44.9993 58.3261 48.0447 57.0647C51.0902 55.8032 53.6931 53.667 55.5245 50.9262C57.3558 48.1853 58.3333 44.963 58.3333 41.6667C58.3333 40.5616 58.7723 39.5018 59.5537 38.7204C60.3351 37.939 61.3949 37.5 62.5 37.5C63.6051 37.5 64.6649 37.939 65.4463 38.7204C66.2277 39.5018 66.6667 40.5616 66.6667 41.6667C66.6667 46.6112 65.2004 51.4447 62.4534 55.5559C59.7064 59.6671 55.8019 62.8715 51.2337 64.7637C46.6656 66.6558 41.6389 67.1509 36.7894 66.1863C31.9399 65.2217 27.4853 62.8407 23.989 59.3443C20.4927 55.848 18.1117 51.3934 17.147 46.5439C16.1824 41.6944 16.6775 36.6677 18.5697 32.0996C20.4619 27.5314 23.6662 23.627 27.7774 20.8799C31.8886 18.1329 36.7221 16.6667 41.6667 16.6667ZM69.0458 0.416666C69.5984 0.416666 70.1283 0.63616 70.519 1.02686C70.9097 1.41756 71.1292 1.94747 71.1292 2.5V10.125C71.1303 10.6768 71.3503 11.2056 71.7408 11.5954C72.1314 11.9852 72.6607 12.2042 73.2125 12.2042H80.8333C81.3859 12.2042 81.9158 12.4237 82.3065 12.8144C82.6972 13.2051 82.9167 13.735 82.9167 14.2875V18.1L75.05 25.9667C73.4876 27.5296 71.3683 28.4079 69.1583 28.4083H60.825L44.6167 44.6125C43.8308 45.3715 42.7783 45.7915 41.6858 45.782C40.5933 45.7725 39.5483 45.3343 38.7758 44.5617C38.0032 43.7892 37.565 42.7442 37.5555 41.6517C37.546 40.5592 37.966 39.5067 38.725 38.7208L54.9333 22.5167V14.1833C54.9327 11.974 55.8094 9.85479 57.3708 8.29167L65.2458 0.416666H69.0458Z" fill="#3B82F6"/>
</svg>
