<svg width="1920" height="1080" viewBox="0 0 1920 1080" fill="none" xmlns="http://www.w3.org/2000/svg">
<path d="M573 1327C743 1324.2 963.5 1243.17 1052.5 1203C1173.33 1089.67 1385.7 826.8 1268.5 682C1122 501 1232 387.5 1350.5 333C1469 278.5 1474 220 1443 150C1418.2 94.0005 1407 28.0005 1404.5 2.00045C1397.33 -122.666 1474.6 -338.6 1841 -205" stroke="#EDF3FB" stroke-width="2"/>
<path d="M355 1128C505 847.5 867.5 812.5 1009 816.001C1150.5 819.501 1338 795.001 1408 556.501C1464 365.701 1579 332.667 1629.5 340.001C1774.7 426.401 1827 385.334 1835 354.001C1852.67 170.501 1947.1 -178.5 2183.5 -106.5" stroke="#EDF3FB" stroke-width="2"/>
<path d="M362.34 1134.7C440.538 999.077 571.773 920.129 697.554 876.862C824.407 831.132 953.314 814.673 1017.74 811.489C1149.54 808.778 1334.43 781.281 1406.06 548.976C1464.17 362.765 1575.47 328.874 1623.22 333.604C1762.7 415.21 1812.86 373.304 1820.51 342.15C1837.34 160.631 1931.19 -183.89 2171.97 -109.816" stroke="#EDF3FB" stroke-width="2"/>
<path d="M369.983 1141.68C451.512 1010.87 585.986 931.85 710.432 888.696C837.067 840.513 969.002 815.113 1026.83 806.791C1148.54 797.611 1330.72 766.994 1404.05 541.14C1464.34 359.707 1571.78 324.924 1616.68 326.943C1750.2 403.556 1798.13 360.776 1805.41 329.809C1821.37 150.352 1914.63 -189.503 2159.96 -113.269" stroke="#EDF3FB" stroke-width="2"/>
<path d="M377.93 1148.93C462.923 1023.14 600.764 944.038 723.823 901C850.231 850.267 985.315 815.571 1036.3 801.906C1147.5 785.999 1326.85 752.138 1401.95 532.992C1464.53 356.528 1567.96 320.817 1609.88 320.016C1737.2 391.438 1782.82 347.748 1789.72 316.976C1804.77 139.664 1897.4 -195.34 2147.47 -116.86" stroke="#EDF3FB" stroke-width="2"/>
<path d="M386.182 1156.46C474.77 1035.87 616.108 956.691 737.726 913.775C863.898 860.393 1002.25 816.045 1046.12 796.833C1146.42 773.943 1322.84 736.713 1399.78 524.532C1464.71 353.227 1563.98 316.552 1602.82 312.824C1723.71 378.855 1766.92 334.222 1773.42 303.652C1787.54 128.567 1879.52 -201.4 2134.51 -120.589" stroke="#EDF3FB" stroke-width="2"/>
<path d="M394.738 1164.27C487.055 1049.08 632.019 969.811 752.143 927.021C878.07 870.894 1019.81 816.538 1056.3 791.574C1145.31 761.443 1318.68 720.72 1397.52 515.76C1464.91 349.805 1559.86 312.13 1595.5 305.367C1709.72 365.81 1750.44 320.198 1756.53 289.837C1769.67 117.061 1860.97 -207.683 2121.07 -124.454" stroke="#EDF3FB" stroke-width="2"/>
<path d="M403.598 1172.36C499.776 1062.75 648.493 983.398 767.071 940.738C892.745 881.767 1038 817.048 1066.85 786.128C1144.15 748.498 1314.37 704.158 1395.18 506.677C1465.11 346.261 1555.59 307.551 1587.92 297.645C1695.23 352.3 1733.37 305.675 1739.03 275.531C1751.16 105.146 1841.77 -214.19 2107.15 -128.458" stroke="#EDF3FB" stroke-width="2"/>
<path d="M412.762 1180.73C512.934 1076.9 665.535 997.45 782.512 954.925C907.924 893.014 1056.81 817.575 1077.76 780.495C1142.95 735.109 1309.91 687.027 1392.76 497.281C1465.32 342.595 1551.18 302.814 1580.08 289.657C1680.24 338.326 1715.72 290.653 1720.93 260.733C1732.02 92.8217 1821.9 -220.921 2092.75 -132.599" stroke="#EDF3FB" stroke-width="2"/>
<path d="M422.231 1189.37C526.528 1091.51 683.142 1011.97 798.466 969.585C923.607 904.635 1076.24 818.121 1089.03 774.675C1141.71 721.276 1305.31 669.329 1390.27 487.574C1465.54 338.808 1546.62 297.921 1571.98 281.405C1664.76 323.89 1697.47 275.134 1702.24 245.445C1712.24 80.0889 1801.38 -227.874 2077.87 -136.877" stroke="#EDF3FB" stroke-width="2"/>
<path d="M432.004 1198.29C540.56 1106.59 701.314 1026.96 814.932 984.714C939.794 916.628 1096.3 818.684 1100.66 768.668C1140.43 706.998 1300.56 651.061 1387.69 477.555C1465.77 334.899 1541.91 292.871 1563.62 272.888C1648.78 308.989 1678.65 259.115 1682.94 229.665C1691.83 66.9467 1780.2 -235.051 2062.52 -141.292" stroke="#EDF3FB" stroke-width="2"/>
<path d="M442.08 1207.49C555.028 1122.14 720.052 1042.41 831.91 1000.31C956.485 928.995 1116.98 819.263 1112.66 762.474C1139.12 692.276 1295.66 632.225 1385.03 467.223C1466 330.868 1537.06 287.662 1555 264.105C1632.3 293.624 1659.23 242.597 1663.04 213.394C1670.78 53.3952 1758.36 -242.452 2046.69 -145.845" stroke="#EDF3FB" stroke-width="2"/>
<path d="M452.461 1216.97C569.933 1138.17 739.356 1058.33 849.402 1016.39C973.679 941.735 1138.29 819.861 1125.01 756.093C1137.76 677.109 1290.61 612.82 1382.29 456.581C1466.24 326.716 1532.06 282.298 1546.12 255.058C1615.32 277.795 1639.23 225.582 1642.54 196.633C1649.1 39.4352 1735.86 -250.075 2030.38 -150.536" stroke="#EDF3FB" stroke-width="2"/>
<path d="M463.146 1226.72C585.274 1154.66 759.225 1074.71 867.405 1032.93C991.377 954.848 1160.22 820.477 1137.73 749.526C1136.36 661.498 1285.42 592.847 1379.48 445.626C1466.48 322.442 1526.91 276.775 1536.98 245.745C1597.85 261.503 1618.65 208.067 1621.44 179.38C1626.78 25.0659 1712.7 -257.922 2013.59 -155.364" stroke="#EDF3FB" stroke-width="2"/>
<path d="M474.135 1236.75C601.052 1171.62 779.66 1091.56 885.921 1049.94C1009.58 968.335 1182.78 821.109 1150.81 742.77C1134.93 645.443 1280.07 572.305 1376.58 434.359C1466.73 318.046 1521.62 271.096 1527.58 236.167C1579.88 244.746 1597.47 190.054 1599.74 161.635C1603.83 10.2871 1688.88 -265.993 1996.33 -160.329" stroke="#EDF3FB" stroke-width="2"/>
<path d="M485.429 1247.06C617.267 1189.05 800.66 1108.88 904.95 1067.43C1028.29 982.195 1205.96 821.759 1164.26 735.829C1133.45 628.943 1274.58 551.195 1373.6 422.781C1466.99 313.529 1516.18 265.259 1517.92 226.324C1561.41 227.527 1575.72 171.543 1577.43 143.4C1580.24 -4.89998 1664.4 -274.287 1978.58 -165.432" stroke="#EDF3FB" stroke-width="2"/>
<path d="M497.027 1257.65C633.919 1206.95 822.226 1126.67 924.491 1085.38C1047.5 996.429 1229.76 822.427 1178.06 728.7C1131.93 611.999 1268.94 529.516 1370.54 410.891C1467.26 308.89 1510.59 259.266 1508 216.217C1542.44 209.843 1553.37 152.532 1554.53 124.674C1556.02 -20.4965 1639.27 -282.804 1960.36 -170.672" stroke="#EDF3FB" stroke-width="2"/>
<path d="M508.928 1268.51C651.007 1225.32 844.357 1144.92 944.544 1103.81C1067.21 1011.03 1254.19 823.112 1192.23 721.384C1130.38 594.61 1263.15 507.268 1367.4 398.689C1467.53 304.129 1504.86 253.114 1497.81 205.843C1522.98 191.695 1530.44 133.024 1531.03 105.456C1531.16 -36.5022 1613.47 -291.545 1941.66 -176.05" stroke="#EDF3FB" stroke-width="2"/>
<path d="M521.134 1279.65C668.532 1244.15 867.055 1163.63 965.111 1122.7C1087.43 1026.01 1279.24 823.814 1206.76 713.881C1128.78 576.776 1257.22 484.451 1364.18 386.174C1467.81 299.246 1498.98 246.805 1487.37 195.204C1503.02 173.083 1506.92 113.016 1506.92 85.7467C1505.66 -52.9174 1587.02 -300.51 1922.49 -181.565" stroke="#EDF3FB" stroke-width="2"/>
<path d="M533.645 1291.07C686.495 1263.46 890.318 1182.82 986.19 1142.07C1108.15 1041.37 1304.92 824.534 1221.65 706.191C1127.15 558.499 1251.14 461.066 1360.88 373.349C1468.1 294.242 1492.96 240.34 1476.67 184.301C1482.56 154.008 1482.82 92.5095 1482.22 65.5467C1479.54 -69.7411 1559.9 -309.697 1902.83 -187.218" stroke="#EDF3FB" stroke-width="2"/>
<path d="M546.459 1302.77C704.893 1283.24 914.146 1202.47 1007.78 1161.91C1129.37 1057.09 1331.22 825.273 1236.91 698.315C1125.47 539.778 1244.91 437.113 1357.5 360.212C1468.39 289.117 1486.78 233.718 1465.71 173.133C1461.6 134.47 1458.13 71.5057 1456.91 44.8564C1452.77 -86.9731 1532.13 -319.107 1882.7 -193.007" stroke="#EDF3FB" stroke-width="2"/>
<path d="M559.577 1314.75C723.727 1303.48 938.54 1222.58 1029.88 1182.22C1151.1 1073.19 1358.15 826.028 1252.52 690.251C1123.75 520.611 1238.53 412.591 1354.04 346.762C1468.69 283.869 1480.46 226.937 1454.48 161.699C1440.15 114.467 1432.86 50.0021 1431.01 23.6737C1425.37 -104.615 1503.69 -328.742 1862.09 -198.935" stroke="#EDF3FB" stroke-width="2"/>
<path d="M-522 832.19C-516.333 786.523 -456.5 718.29 -262.5 810.69C-223.833 837.523 -147.4 811.79 -151 494.19C-155.5 97.1899 141.5 -20.81 405.5 -44.81C616.7 -64.01 644.834 -145.81 632.5 -184.31" stroke="#EDF3FB" stroke-width="2"/>
<path d="M-441.5 616.19C-371.666 660.523 -216.3 789.39 -153.5 950.19C-74.9996 1151.19 394.5 1301.69 394.5 1111.69C394.5 921.69 377 845.19 311.5 742.69C246 640.19 473 358.69 516.5 321.69C560 284.69 765.5 101.69 809 -94.8099" stroke="#EDF3FB" stroke-width="2"/>
<path d="M-519.985 839.42C-515.831 817.911 -496.716 792.538 -456.348 784.712C-415.671 777.679 -344.208 786.568 -249.12 828.112C-211.216 850.671 -136.634 823.937 -141.455 510.577C-147.157 119.383 148.463 -1.84033 408.116 -26.0966C616.01 -45.6475 647.64 -129.442 636.407 -171.057" stroke="#EDF3FB" stroke-width="2"/>
<path d="M-517.759 843.248C-512.097 823.25 -489.854 801.417 -448.971 797.463C-407.426 795.205 -326.826 807.345 -233.921 843.574C-196.886 861.253 -124.419 833.376 -130.632 524.857C-137.707 140.29 156.338 15.3878 411.029 -9.16097C615.149 -29.1124 650.77 -115.185 640.794 -160.355" stroke="#EDF3FB" stroke-width="2"/>
<path d="M-515.345 841.336C-507.988 823.037 -482.23 805.184 -440.768 805.581C-398.247 808.691 -307.376 824.485 -216.924 854.739C-180.868 866.934 -110.776 837.773 -118.555 534.695C-127.174 157.577 165.101 28.5389 414.214 3.6613C614.093 -16.7404 654.2 -105.373 645.636 -154.539" stroke="#EDF3FB" stroke-width="2"/>
<path d="M-512.766 838.669C-503.528 822.256 -473.866 808.823 -431.762 814.05C-388.157 823.121 -285.882 842.972 -198.155 866.592C-163.185 872.697 -95.7311 842.111 -105.248 545.073C-115.58 176.226 174.728 42.5965 417.649 17.3537C612.818 -3.54787 657.907 -95.0222 650.911 -148.626" stroke="#EDF3FB" stroke-width="2"/>
<path d="M-510.044 834.694C-498.737 820.356 -464.783 811.78 -421.972 822.319C-377.176 837.942 -262.365 862.253 -177.633 878.581C-143.856 877.991 -79.3028 845.837 -90.7314 555.441C-102.946 195.687 185.201 57.0087 421.314 31.3645C611.304 9.91335 661.87 -84.6856 656.598 -143.168" stroke="#EDF3FB" stroke-width="2"/>
<path d="M-507.194 829.639C-493.631 817.561 -454.998 814.283 -411.417 830.612C-365.322 853.38 -236.841 882.555 -155.374 890.93C-122.899 883.04 -61.5083 849.177 -75.0208 566.023C-89.2892 216.184 196.501 72.0011 425.191 45.9193C609.535 23.8688 666.072 -74.1371 662.68 -137.939" stroke="#EDF3FB" stroke-width="2"/>
<path d="M-504.227 824.162C-488.222 814.534 -444.522 816.991 -400.106 839.592C-352.604 870.096 -209.32 904.538 -131.39 904.302C-100.325 888.507 -42.3587 852.793 -58.1278 577.481C-74.6201 238.378 208.618 88.2348 429.269 61.6791C607.5 38.9797 670.503 -62.7158 669.146 -132.278" stroke="#EDF3FB" stroke-width="2"/>
<path d="M-501.142 816.855C-482.508 809.862 -433.353 818.495 -388.039 847.847C-339.023 886.68 -179.803 926.791 -105.679 917.285C-76.1319 892.98 -21.8521 855.274 -40.0507 588.404C-58.937 260.859 221.554 104.299 433.551 77.2331C605.2 53.8351 675.164 -51.8321 675.999 -127.595" stroke="#EDF3FB" stroke-width="2"/>
<path d="M-497.861 807.404C-476.41 803.235 -421.412 818.482 -375.137 855.065C-324.498 902.819 -148.209 949.003 -78.1635 929.568C-50.2415 896.147 0.0895244 856.307 -20.7112 598.479C-42.1619 283.315 235.387 119.881 438.114 92.269C602.713 68.1228 680.134 -41.7986 683.315 -124.204" stroke="#EDF3FB" stroke-width="2"/>
<path d="M-494.362 796.506C-469.908 795.348 -408.679 817.648 -361.378 861.943C-309.01 919.21 -114.518 971.87 -48.821 941.846C-22.6324 898.705 23.4879 856.589 -0.0877386 608.404C-24.2729 306.442 250.137 135.679 442.98 107.484C600.062 82.5394 685.433 -31.9187 691.118 -121.407" stroke="#EDF3FB" stroke-width="2"/>
<path d="M-490.646 784.46C-463 786.5 -395.153 816.293 -346.762 868.779C-292.557 936.152 -78.7301 995.691 -17.6519 954.42C6.69543 900.953 48.3426 856.42 21.8194 618.477C-5.27059 330.539 265.806 151.99 448.149 123.176C597.245 97.3842 691.062 -21.8928 699.406 -118.905" stroke="#EDF3FB" stroke-width="2"/>
<path d="M-486.711 771.417C-455.689 776.843 -380.835 814.567 -331.29 875.725C-275.14 953.795 -40.8448 1020.62 15.3437 967.438C37.7419 903.041 74.6539 855.949 45.0103 628.849C14.8454 355.756 282.394 168.966 453.621 139.496C594.264 112.807 697.022 -11.5713 708.18 -116.548" stroke="#EDF3FB" stroke-width="2"/>
<path d="M-482.559 757.457C-447.972 766.456 -365.723 812.551 -314.962 882.86C-256.759 972.221 -0.862179 1046.73 50.1659 980.982C70.507 905.05 102.422 855.257 69.4851 639.601C36.075 382.175 299.899 186.687 459.396 156.525C591.117 128.889 703.311 -0.873071 717.439 -114.255" stroke="#EDF3FB" stroke-width="2"/>
<path d="M-478.189 742.628C-439.85 755.388 -349.82 810.293 -297.777 890.233C-237.414 991.475 41.2178 1074.07 86.8148 995.101C104.991 907.028 131.646 854.392 95.2437 650.78C58.4181 409.843 318.323 205.2 465.474 174.311C587.805 145.678 709.93 10.2497 727.184 -111.979" stroke="#EDF3FB" stroke-width="2"/>
<path d="M-473.601 726.963C-431.324 743.672 -333.123 807.825 -279.735 897.876C-217.104 1011.59 85.395 1102.68 125.29 1009.83C141.193 909.008 162.327 853.388 122.286 662.419C81.8749 438.794 337.665 224.54 471.855 192.887C584.328 163.208 716.879 21.8304 737.415 -109.686" stroke="#EDF3FB" stroke-width="2"/>
<path d="M-468.795 710.481C-422.393 731.325 -315.634 805.166 -260.837 905.809C-195.83 1032.59 131.669 1132.57 165.592 1025.18C179.114 911.007 194.465 852.261 150.612 674.537C106.445 469.045 357.925 244.724 478.538 212.27C580.686 181.495 724.158 33.8868 748.132 -107.358" stroke="#EDF3FB" stroke-width="2"/>
<path d="M-463.772 693.196C-413.057 718.363 -297.353 802.331 -241.083 914.045C-173.593 1054.49 180.041 1163.77 207.721 1041.17C218.754 913.042 228.059 851.028 180.222 687.148C132.129 500.611 379.104 265.767 485.525 232.476C576.879 200.556 731.767 46.4335 759.334 -104.98" stroke="#EDF3FB" stroke-width="2"/>
<path d="M-458.53 675.118C-403.317 704.796 -278.278 799.33 -220.472 922.595C-150.391 1077.29 230.51 1196.27 251.676 1057.81C260.113 915.121 263.109 849.699 211.116 700.263C158.927 533.503 401.201 287.679 492.814 253.515C572.907 220.399 739.705 59.4815 771.022 -102.542" stroke="#EDF3FB" stroke-width="2"/>
<path d="M-453.071 656.255C-393.171 690.63 -258.411 796.169 -199.004 931.466C-126.224 1101 283.076 1230.09 297.457 1075.1C303.19 917.252 299.616 848.279 243.294 713.889C186.838 567.726 424.216 310.467 500.407 275.394C568.77 241.033 747.974 73.0368 783.196 -100.038" stroke="#EDF3FB" stroke-width="2"/>
<path d="M-447.394 636.611C-382.621 675.871 -237.752 792.855 -176.68 940.663C-101.094 1125.64 337.74 1265.23 345.066 1093.06C347.986 919.441 337.58 846.775 276.755 728.03C215.862 603.287 448.149 334.136 508.302 298.118C564.468 262.462 756.572 87.105 795.855 -97.462" stroke="#EDF3FB" stroke-width="2"/>
</svg>
