<svg width="1920" height="642" viewBox="0 0 1920 642" fill="none" xmlns="http://www.w3.org/2000/svg">
<path d="M1087 -425C917 -422.2 696.5 -341.167 607.5 -301C486.667 -187.667 274.3 75.2 391.5 220C538 401 428 514.5 309.5 569C191 623.5 186 682 217 752C241.8 808 253 874 255.5 900C262.667 1024.67 185.4 1240.6 -181 1107" stroke="#EDF3FB" stroke-width="2"/>
<path d="M1305 -226C1155 54.5 792.5 89.4999 651 85.9999C509.5 82.4999 322 107 252 345.5C196 536.3 81 569.333 30.5 562C-114.7 475.599 -167 516.666 -175 548C-192.667 731.5 -287.1 1080.5 -523.5 1008.5" stroke="#EDF3FB" stroke-width="2"/>
<path d="M1297.66 -232.699C1219.46 -97.0766 1088.23 -18.129 962.446 25.138C835.593 70.8682 706.686 87.3277 642.263 90.5115C510.459 93.2229 325.568 120.719 253.935 353.025C195.831 539.236 84.5346 573.126 36.7784 568.396C-102.698 486.79 -152.861 528.697 -160.507 559.85C-177.338 741.37 -271.193 1085.89 -511.97 1011.82" stroke="#EDF3FB" stroke-width="2"/>
<path d="M1290.02 -239.677C1208.49 -108.873 1074.01 -29.8501 949.568 13.3044C822.933 61.4875 690.998 86.8874 633.165 95.2094C511.459 104.39 329.285 135.006 255.952 360.861C195.656 542.293 88.2163 577.076 43.3176 575.058C-90.1988 498.445 -138.135 541.225 -145.413 572.192C-161.373 751.648 -254.626 1091.5 -499.961 1015.27" stroke="#EDF3FB" stroke-width="2"/>
<path d="M1282.07 -246.932C1197.08 -121.139 1059.24 -42.0372 936.177 1.00027C809.769 51.7338 674.685 86.4299 623.704 100.095C512.498 116.001 333.149 149.863 258.048 369.009C195.474 545.472 92.0441 581.184 50.1166 581.985C-77.202 510.563 -122.823 554.252 -129.718 585.024C-144.773 762.336 -237.401 1097.34 -487.475 1018.86" stroke="#EDF3FB" stroke-width="2"/>
<path d="M1273.82 -254.464C1185.23 -133.874 1043.89 -54.6905 922.274 -11.7744C796.102 41.6071 657.749 85.9551 613.882 105.167C513.577 128.057 337.162 165.288 260.225 377.469C195.285 548.773 96.0191 585.449 57.1766 589.177C-63.7073 523.145 -106.924 567.778 -113.423 598.349C-127.537 773.434 -219.515 1103.4 -474.51 1022.59" stroke="#EDF3FB" stroke-width="2"/>
<path d="M1265.26 -262.274C1172.94 -147.079 1027.98 -67.8109 907.857 -25.0208C781.93 31.1065 640.187 85.4623 603.697 110.426C514.695 140.557 341.322 181.28 262.481 386.24C195.088 552.195 100.139 589.87 64.4954 596.634C-49.7164 536.191 -90.4414 581.802 -96.5274 612.163C-109.667 784.939 -200.971 1109.68 -461.068 1026.45" stroke="#EDF3FB" stroke-width="2"/>
<path d="M1256.4 -270.362C1160.22 -160.754 1011.51 -81.3974 892.929 -38.7376C767.255 20.2329 622.002 84.9522 593.151 115.872C515.854 153.502 345.63 197.842 264.819 395.324C194.886 555.739 104.408 594.449 72.076 604.356C-35.2265 549.7 -73.3707 596.325 -79.0299 626.47C-91.1606 796.854 -181.767 1116.19 -447.147 1030.46" stroke="#EDF3FB" stroke-width="2"/>
<path d="M1247.24 -278.728C1147.07 -174.897 994.465 -95.45 877.488 -52.9251C752.076 8.98632 603.192 84.4249 582.242 121.505C517.051 166.891 350.086 214.973 267.235 404.72C194.675 559.405 108.821 599.186 79.9156 612.343C-20.2405 563.674 -55.7153 611.347 -60.9331 641.267C-72.0199 809.179 -161.905 1122.92 -432.75 1034.6" stroke="#EDF3FB" stroke-width="2"/>
<path d="M1237.77 -287.371C1133.47 -189.51 976.858 -109.97 861.534 -67.5842C736.393 -2.63422 583.758 83.8795 570.971 127.325C518.289 180.724 354.69 232.672 269.733 414.427C194.458 563.192 113.382 604.079 88.016 620.595C-4.75645 578.111 -37.4732 626.867 -42.235 656.555C-52.2432 821.912 -141.382 1129.87 -417.874 1038.88" stroke="#EDF3FB" stroke-width="2"/>
<path d="M1228 -296.292C1119.44 -204.593 958.686 -124.956 845.068 -82.7138C720.206 -14.6277 563.699 83.3169 559.338 133.332C519.567 195.002 359.442 250.939 272.31 424.446C194.234 567.101 118.088 609.13 96.3763 629.112C11.2246 593.012 -18.6455 642.886 -22.9366 672.335C-31.8315 835.054 -120.201 1137.05 -402.521 1043.29" stroke="#EDF3FB" stroke-width="2"/>
<path d="M1217.92 -305.49C1104.97 -220.145 939.948 -140.407 828.09 -98.314C703.515 -26.9942 543.016 82.737 547.343 139.526C520.884 209.725 364.342 269.776 274.968 434.777C194.003 571.132 122.942 614.338 104.997 637.895C27.7038 608.377 0.768884 659.403 -3.0369 688.606C-10.7839 848.605 -98.36 1144.45 -386.688 1047.85" stroke="#EDF3FB" stroke-width="2"/>
<path d="M1207.54 -314.967C1090.07 -236.166 920.645 -156.326 810.599 -114.386C686.321 -39.7347 521.709 82.1391 534.986 145.907C522.242 224.891 369.389 289.18 277.707 445.42C193.765 575.284 127.942 619.703 113.878 646.943C44.6801 624.205 20.7689 676.419 17.4631 705.368C10.8987 862.565 -75.86 1152.08 -370.379 1052.54" stroke="#EDF3FB" stroke-width="2"/>
<path d="M1196.85 -324.721C1074.73 -252.657 900.775 -172.712 792.595 -130.928C668.623 -52.8481 499.778 81.5239 522.266 152.475C523.638 240.502 374.585 309.154 280.525 456.374C193.519 579.558 133.089 625.225 123.019 656.255C62.1534 640.498 41.3546 693.933 38.5635 722.621C33.2162 876.935 -52.701 1159.92 -353.592 1057.36" stroke="#EDF3FB" stroke-width="2"/>
<path d="M1185.86 -334.752C1058.95 -269.617 880.341 -189.563 774.079 -147.941C650.421 -66.3345 477.222 80.8915 509.185 159.23C525.075 256.558 379.928 329.696 283.423 467.641C193.268 583.954 138.382 630.905 132.421 665.833C80.1247 657.254 62.527 711.947 60.2652 740.365C56.1698 891.713 -28.8821 1167.99 -336.326 1062.33" stroke="#EDF3FB" stroke-width="2"/>
<path d="M1174.57 -345.062C1042.73 -287.048 859.34 -206.881 755.051 -165.426C631.715 -80.1949 454.042 80.241 495.742 166.171C526.552 273.057 385.42 350.806 286.402 479.219C193.009 588.471 143.821 636.741 142.083 675.676C98.5932 674.474 84.2851 730.458 82.5672 758.6C79.7583 906.9 -4.40436 1176.29 -318.583 1067.43" stroke="#EDF3FB" stroke-width="2"/>
<path d="M1162.97 -355.648C1026.08 -304.947 837.774 -224.666 735.509 -183.381C612.505 -94.4282 430.237 79.5733 481.936 173.3C528.067 290.002 391.058 372.485 289.461 491.109C192.742 593.11 149.407 642.735 152.004 685.784C117.559 692.157 106.629 749.468 105.47 777.327C103.982 922.497 20.7324 1184.8 -300.362 1072.67" stroke="#EDF3FB" stroke-width="2"/>
<path d="M1151.07 -366.513C1008.99 -323.315 815.643 -242.916 715.456 -201.807C592.792 -109.035 405.809 78.8883 467.769 180.616C529.624 307.39 396.846 394.733 292.6 503.312C192.47 597.871 155.14 648.886 162.186 696.157C137.022 710.305 129.559 768.977 128.973 796.544C128.841 938.503 46.529 1193.55 -281.663 1078.05" stroke="#EDF3FB" stroke-width="2"/>
<path d="M1138.87 -377.654C991.468 -342.153 792.945 -261.633 694.889 -220.703C572.574 -124.014 380.755 78.1862 453.239 188.12C531.219 325.224 402.781 417.55 295.82 515.826C192.19 602.754 161.019 655.195 172.629 706.796C156.983 728.917 153.075 788.985 153.077 816.254C154.336 954.918 72.9846 1202.51 -262.486 1083.57" stroke="#EDF3FB" stroke-width="2"/>
<path d="M1126.35 -389.074C973.505 -361.46 769.682 -280.817 673.81 -240.071C551.853 -139.367 355.078 77.4659 438.347 195.809C532.854 343.501 408.863 440.934 299.119 528.652C191.902 607.758 167.044 661.661 183.331 717.7C177.441 747.992 177.177 809.491 177.781 836.454C180.465 971.742 100.099 1211.7 -242.832 1089.22" stroke="#EDF3FB" stroke-width="2"/>
<path d="M1113.54 -400.772C955.107 -381.238 745.854 -300.468 652.219 -259.91C530.628 -155.094 328.776 76.7275 423.093 203.685C534.53 362.223 415.094 464.887 302.499 541.789C191.608 612.883 173.216 668.283 194.294 728.867C198.396 767.53 201.865 830.495 203.087 857.144C207.23 988.974 127.873 1221.11 -222.699 1095.01" stroke="#EDF3FB" stroke-width="2"/>
<path d="M1100.42 -412.747C936.273 -401.484 721.46 -320.584 630.117 -280.219C508.9 -171.193 301.851 75.9728 407.478 211.749C536.246 381.389 421.474 489.41 305.96 555.239C191.308 618.131 179.535 675.063 205.517 740.301C219.85 787.534 227.14 851.998 228.994 878.327C234.631 1006.62 156.308 1230.74 -202.088 1100.94" stroke="#EDF3FB" stroke-width="2"/>
<path d="M2182 69.8105C2176.33 115.477 2116.5 183.711 1922.5 91.3105C1883.83 64.4772 1807.4 90.2105 1811 407.811C1815.5 804.811 1518.5 922.811 1254.5 946.811C1043.3 966.011 1015.17 1047.81 1027.5 1086.31" stroke="#EDF3FB" stroke-width="2"/>
<path d="M2101.5 285.811C2031.67 241.477 1876.3 112.611 1813.5 -48.1893C1735 -249.189 1265.5 -399.689 1265.5 -209.689C1265.5 -19.6893 1283 56.8105 1348.5 159.311C1414 261.811 1187 543.311 1143.5 580.311C1100 617.311 894.5 800.311 851 996.811" stroke="#EDF3FB" stroke-width="2"/>
<path d="M2179.99 62.5801C2175.83 84.0893 2156.72 109.463 2116.35 117.288C2075.67 124.321 2004.21 115.432 1909.12 73.8883C1871.22 51.3295 1796.63 78.0636 1801.45 391.423C1807.16 782.618 1511.54 903.841 1251.88 928.097C1043.99 947.648 1012.36 1031.44 1023.59 1073.06" stroke="#EDF3FB" stroke-width="2"/>
<path d="M2177.76 58.7529C2172.1 78.7507 2149.85 100.583 2108.97 104.538C2067.43 106.795 1986.83 94.655 1893.92 58.4267C1856.89 40.7474 1784.42 68.624 1790.63 377.143C1797.71 761.71 1503.66 886.613 1248.97 911.161C1044.85 931.113 1009.23 1017.19 1019.21 1062.36" stroke="#EDF3FB" stroke-width="2"/>
<path d="M2175.34 60.6647C2167.99 78.9635 2142.23 96.8161 2100.77 96.4197C2058.25 93.3093 1967.38 77.515 1876.92 47.2612C1840.87 35.0667 1770.78 64.2273 1778.56 367.306C1787.17 744.423 1494.9 873.462 1245.79 898.339C1045.91 918.741 1005.8 1007.37 1014.36 1056.54" stroke="#EDF3FB" stroke-width="2"/>
<path d="M2172.77 63.3317C2163.53 79.7442 2133.87 93.1778 2091.76 87.9503C2048.16 78.8798 1945.88 59.0285 1858.16 35.4083C1823.19 29.3035 1755.73 59.89 1765.25 356.927C1775.58 725.774 1485.27 859.404 1242.35 884.647C1047.18 905.548 1002.09 997.023 1009.09 1050.63" stroke="#EDF3FB" stroke-width="2"/>
<path d="M2170.04 67.306C2158.74 81.6446 2124.78 90.2203 2081.97 79.6816C2037.18 64.0588 1922.37 39.7472 1837.63 23.4199C1803.86 24.0099 1739.3 56.1638 1750.73 346.56C1762.95 706.314 1474.8 844.992 1238.69 870.636C1048.7 892.087 998.131 986.686 1003.4 1045.17" stroke="#EDF3FB" stroke-width="2"/>
<path d="M2167.19 72.3617C2153.63 84.4391 2115 87.7177 2071.42 71.388C2025.32 48.6206 1896.84 19.4457 1815.37 11.0703C1782.9 18.9603 1721.51 52.8232 1735.02 335.978C1749.29 685.817 1463.5 829.999 1234.81 856.081C1050.46 878.132 993.928 976.138 997.321 1039.94" stroke="#EDF3FB" stroke-width="2"/>
<path d="M2164.23 77.838C2148.22 87.4667 2104.52 85.0092 2060.11 62.4082C2012.6 31.9042 1869.32 -2.53724 1791.39 -2.30153C1760.33 13.4935 1702.36 49.2072 1718.13 324.52C1734.62 663.622 1451.38 813.766 1230.73 840.321C1052.5 863.021 989.498 964.716 990.854 1034.28" stroke="#EDF3FB" stroke-width="2"/>
<path d="M2161.14 85.1455C2142.51 92.1381 2093.35 83.5053 2048.04 54.1532C1999.02 15.3202 1839.8 -24.7908 1765.68 -15.2849C1736.13 9.0202 1681.85 46.7264 1700.05 313.597C1718.94 641.141 1438.45 797.701 1226.45 824.767C1054.8 848.165 984.836 953.833 984.002 1029.6" stroke="#EDF3FB" stroke-width="2"/>
<path d="M2157.86 94.5967C2136.41 98.7657 2081.41 83.5186 2035.14 46.9353C1984.5 -0.81884 1808.21 -47.0026 1738.16 -27.5673C1710.24 5.853 1659.91 45.6933 1680.71 303.521C1702.16 618.686 1424.61 782.119 1221.89 809.732C1057.29 833.878 979.867 943.799 976.686 1026.2" stroke="#EDF3FB" stroke-width="2"/>
<path d="M2154.36 105.495C2129.91 106.653 2068.68 84.3523 2021.38 40.0577C1969.01 -17.2097 1774.52 -69.8693 1708.82 -39.8456C1682.63 3.29505 1636.51 45.4112 1660.09 293.597C1684.27 595.559 1409.86 766.322 1217.02 794.517C1059.94 819.461 974.567 933.919 968.883 1023.41" stroke="#EDF3FB" stroke-width="2"/>
<path d="M2150.65 117.54C2123 115.5 2055.15 85.707 2006.76 33.2212C1952.56 -34.1518 1738.73 -93.6904 1677.65 -52.419C1653.3 1.04699 1611.66 45.5806 1638.18 283.523C1665.27 571.462 1394.19 750.01 1211.85 778.824C1062.76 804.616 968.938 923.893 960.595 1020.91" stroke="#EDF3FB" stroke-width="2"/>
<path d="M2146.71 130.584C2115.69 125.157 2040.83 87.433 1991.29 26.2758C1935.14 -51.7949 1700.85 -118.616 1644.66 -65.4375C1622.26 -1.04096 1585.35 46.0517 1614.99 273.151C1645.15 546.244 1377.61 733.035 1206.38 762.504C1065.74 789.193 962.979 913.572 951.821 1018.55" stroke="#EDF3FB" stroke-width="2"/>
<path d="M2142.56 144.544C2107.97 135.544 2025.72 89.4492 1974.96 19.1407C1916.76 -70.2201 1660.86 -144.726 1609.83 -78.9819C1589.49 -3.04983 1557.58 46.7437 1590.52 262.4C1623.93 519.825 1360.1 715.314 1200.6 745.475C1068.88 773.111 956.69 902.874 942.562 1016.26" stroke="#EDF3FB" stroke-width="2"/>
<path d="M2138.19 159.373C2099.85 146.613 2009.82 91.7078 1957.78 11.768C1897.41 -89.475 1618.78 -172.069 1573.19 -93.1001C1555.01 -5.02736 1528.35 47.6086 1564.76 251.221C1601.58 492.157 1341.68 696.8 1194.53 727.69C1072.2 756.322 950.071 891.751 932.816 1013.98" stroke="#EDF3FB" stroke-width="2"/>
<path d="M2133.6 175.037C2091.32 158.329 1993.12 94.1752 1939.74 4.12404C1877.1 -109.593 1574.61 -200.679 1534.71 -107.826C1518.81 -7.00723 1497.67 48.6129 1537.71 239.581C1578.13 463.206 1322.33 677.46 1188.15 709.114C1075.67 738.793 943.121 880.17 922.585 1011.69" stroke="#EDF3FB" stroke-width="2"/>
<path d="M2128.8 191.519C2082.39 170.675 1975.63 96.8341 1920.84 -3.8085C1855.83 -130.592 1528.33 -230.573 1494.41 -123.176C1480.89 -9.00679 1465.54 49.7391 1509.39 227.464C1553.56 432.956 1302.08 657.277 1181.46 689.73C1079.31 720.505 935.843 868.114 911.869 1009.36" stroke="#EDF3FB" stroke-width="2"/>
<path d="M2123.77 208.805C2073.06 183.638 1957.35 99.6695 1901.08 -12.0445C1833.59 -152.487 1479.96 -261.765 1452.28 -139.166C1441.25 -11.041 1431.94 50.9724 1479.78 214.852C1527.87 401.39 1280.9 636.234 1174.48 669.524C1083.12 701.445 928.234 855.567 900.666 1006.98" stroke="#EDF3FB" stroke-width="2"/>
<path d="M2118.53 226.882C2063.32 197.205 1938.28 102.671 1880.47 -20.5949C1810.39 -175.289 1429.49 -294.267 1408.32 -155.807C1399.89 -13.1206 1396.89 52.3019 1448.88 201.737C1501.07 368.498 1258.8 614.322 1167.19 648.485C1087.09 681.601 920.296 842.519 888.979 1004.54" stroke="#EDF3FB" stroke-width="2"/>
<path d="M2113.07 245.746C2053.17 211.37 1918.41 105.831 1859 -29.4658C1786.22 -199.003 1376.92 -328.086 1362.54 -173.104C1356.81 -15.2519 1360.38 53.7214 1416.71 188.112C1473.16 334.274 1235.78 591.534 1159.59 626.607C1091.23 660.968 912.027 828.964 876.805 1002.04" stroke="#EDF3FB" stroke-width="2"/>
<path d="M2107.39 265.39C2042.62 226.129 1897.75 109.146 1836.68 -38.6626C1761.09 -223.635 1322.26 -363.225 1314.93 -191.064C1312.01 -17.4401 1322.42 55.2256 1383.25 173.971C1444.14 298.713 1211.85 567.865 1151.7 603.883C1095.53 639.539 903.428 814.896 864.145 999.463" stroke="#EDF3FB" stroke-width="2"/>
</svg>
