<svg width="390" height="277" viewBox="0 0 390 277" fill="none" xmlns="http://www.w3.org/2000/svg">
<path d="M-1156 116.049C-1113.5 144.049 -994.6 191.649 -859 158.049C-689.5 116.049 -555 8.04881 -324.5 116.049C-240.667 162.882 -35.4 239.549 115 171.549C303 86.5488 335.5 -9.45119 512 39.5488C688.5 88.5488 692.5 304.549 873 273.049C1053.5 241.549 1044.5 69.5488 1012.5 39.5488" stroke="#477EFF"/>
<path d="M-1111.5 0.250885C-1066.83 77.2509 -929.4 233.551 -737 242.751C-496.5 254.251 -385 95.7509 -105 146.751C175 197.751 273 214.251 453.5 169.251C634 124.251 698.5 218.251 867.5 210.751C1036.5 203.251 1093.5 148.751 1074.5 37.7509" stroke="#477EFF"/>
<path d="M-1154.86 108.295C-1112.88 136.563 -995.852 184.437 -862.08 152.967C-695.273 113.312 -562.102 9.12491 -335.03 114.485C-247.198 160.417 -44.3244 231.08 109.384 166.118C299.732 84.5898 333.904 -8.53846 510.506 38.062C687.109 84.6625 692.653 297.548 872.859 266.661C1053.07 235.774 1045.75 66.7729 1014.08 34.7052" stroke="#477EFF"/>
<path d="M-1153.63 99.876C-1112.2 128.435 -997.212 176.606 -865.426 147.451C-701.546 110.344 -569.818 10.2997 -346.471 112.792C-254.293 157.744 -54.0209 221.885 103.282 160.223C296.182 82.4667 332.171 -7.54119 508.884 36.4521C685.597 80.4453 692.819 289.947 872.707 259.726C1052.59 229.504 1047.11 63.7623 1015.8 29.448" stroke="#477EFF"/>
<path d="M-1152.3 91.1017C-1111.47 119.975 -998.68 168.468 -869.039 141.812C-708.318 107.454 -578.148 11.8835 -358.823 111.28C-261.954 155.173 -64.4894 212.272 96.6945 154.174C292.35 80.49 330.3 -6.14905 507.133 35.0293C683.966 76.2078 693 282.056 872.543 252.553C1052.09 223.05 1048.58 60.8273 1017.66 24.0874" stroke="#477EFF"/>
<path d="M-1150.87 86.6001C-1110.69 115.811 -1000.26 164.649 -872.918 140.676C-715.59 109.272 -587.094 18.5042 -372.087 114.576C-270.18 157.333 -75.7308 206.87 89.6202 152.598C288.234 83.2875 328.29 0.265867 505.251 38.4217C682.213 76.5776 693.192 278.503 872.366 249.772C1051.54 221.041 1050.15 62.5959 1019.65 23.2515" stroke="#477EFF"/>
<path d="M-1149.34 81.7891C-1109.86 111.361 -1001.94 160.567 -877.064 139.462C-723.362 111.214 -596.654 25.5796 -386.262 118.098C-278.972 159.641 -87.7443 201.097 82.0603 150.914C283.835 86.2771 326.142 7.12135 503.241 42.047C680.34 76.9727 693.399 274.706 872.177 246.799C1050.95 218.893 1051.84 64.4858 1021.78 22.3579" stroke="#477EFF"/>
<path d="M-1147.71 76.6689C-1108.97 106.625 -1003.74 156.223 -881.477 138.17C-731.634 113.282 -606.829 33.1101 -401.349 121.847C-288.329 162.097 -100.531 194.953 74.0137 149.122C279.153 89.459 323.856 14.4178 501.101 45.9056C678.346 77.3934 693.618 270.665 871.975 243.636C1050.33 216.607 1053.63 66.4974 1024.05 21.4071" stroke="#477EFF"/>
<path d="M-1145.98 71.2394C-1108.02 101.603 -1005.64 151.617 -886.156 136.8C-740.404 115.474 -617.617 41.0952 -417.346 125.822C-298.25 164.702 -114.088 188.437 65.4824 147.222C274.19 92.833 321.433 22.1547 498.833 49.997C676.233 77.8393 693.851 266.379 871.762 240.281C1049.67 214.183 1055.53 68.6304 1026.46 20.3987" stroke="#477EFF"/>
<path d="M-1144.16 65.5005C-1107.03 96.2943 -1007.65 146.748 -891.102 135.352C-749.675 117.791 -629.022 49.5354 -434.256 130.023C-308.738 167.455 -128.42 181.55 56.4634 145.213C268.942 96.3992 318.87 30.3325 496.434 54.3216C673.999 78.3107 694.096 261.85 871.536 236.736C1048.98 211.621 1057.54 70.8849 1029 19.3329" stroke="#477EFF"/>
<path d="M-1142.24 59.4525C-1105.97 90.6999 -1009.77 141.617 -896.314 133.826C-759.445 120.233 -641.04 58.4304 -452.076 134.451C-319.789 170.357 -143.522 174.293 46.9597 143.096C263.413 100.158 316.17 38.9511 493.907 58.8793C671.645 78.8075 694.356 257.076 871.299 232.999C1048.24 208.921 1059.65 73.261 1031.68 18.2097" stroke="#477EFF"/>
<path d="M-1140.22 53.0951C-1104.87 84.8193 -1011.99 136.223 -901.793 132.222C-769.715 122.799 -653.673 67.7803 -470.807 139.106C-331.407 173.407 -159.398 166.664 36.9692 140.871C257.6 104.108 313.332 48.0103 491.251 63.67C669.169 79.3297 694.628 252.058 871.049 229.071C1047.47 206.083 1061.88 75.7585 1034.49 17.0291" stroke="#477EFF"/>
<path d="M-1138.1 46.4285C-1103.71 78.6527 -1014.33 130.567 -907.538 130.54C-780.484 125.491 -666.921 77.5851 -490.45 143.987C-343.589 176.606 -176.045 158.664 26.4932 138.538C251.505 108.251 310.356 57.5104 488.465 68.6939C666.574 79.8774 694.914 246.796 870.787 224.952C1046.66 203.107 1064.21 78.3776 1037.44 15.791" stroke="#477EFF"/>
<path d="M-1135.88 39.4526C-1102.5 72.1999 -1016.77 124.649 -913.549 128.779C-791.753 128.308 -680.783 87.8447 -511.004 149.094C-356.337 179.952 -193.465 150.293 15.5314 136.096C245.127 112.586 307.242 67.4511 485.551 73.9508C663.859 80.4504 695.213 241.29 870.514 220.642C1045.81 199.993 1066.65 81.1181 1040.53 14.4955" stroke="#477EFF"/>
<path d="M-1133.56 32.1673C-1101.23 65.461 -1019.33 118.468 -919.828 126.941C-803.522 131.249 -695.26 98.5592 -532.47 154.428C-369.65 183.448 -211.657 141.551 4.08289 133.547C238.466 117.114 303.99 77.8325 482.506 79.4407C661.023 81.0488 695.525 235.54 870.227 216.14C1044.93 196.74 1069.2 83.9802 1043.76 13.1425" stroke="#477EFF"/>
<path d="M-1131.15 24.5727C-1099.91 58.4361 -1021.99 112.025 -926.373 125.025C-815.79 134.315 -710.351 109.729 -554.846 159.988C-383.528 187.091 -230.622 132.437 -7.85132 130.889C231.523 121.833 300.599 88.6548 479.333 85.1637C658.066 81.6727 695.851 229.546 869.929 211.448C1044.01 193.35 1071.86 86.9637 1047.12 11.7321" stroke="#477EFF"/>
<path d="M-1128.64 16.6689C-1098.54 51.125 -1024.75 105.32 -933.185 123.031C-828.559 137.506 -726.058 121.353 -578.135 165.775C-397.972 190.883 -250.359 122.952 -20.2721 128.122C224.296 126.745 297.07 99.9177 476.03 91.1198C654.989 82.3219 696.189 223.308 869.618 206.564C1043.05 189.821 1074.63 90.0688 1050.62 10.2642" stroke="#477EFF"/>
<path d="M-1126.03 8.73892C-1097.11 43.8111 -1027.63 98.6347 -940.262 121.241C-841.826 141.106 -742.378 133.715 -602.333 172.071C-412.979 195.107 -270.868 113.38 -33.1777 125.531C216.788 132.132 293.404 111.905 472.598 97.5921C651.793 83.2797 696.541 217.108 869.296 201.773C1042.05 186.438 1077.5 93.5785 1054.26 9.02207" stroke="#477EFF"/>
<path d="M-1123.32 7.15616C-1095.63 42.8675 -1030.62 98.344 -947.606 126.031C-855.593 151.486 -759.313 153.189 -627.444 185.251C-428.553 206.135 -292.15 110.093 -46.5699 129.488C208.996 144.367 289.6 130.989 469.037 110.954C648.475 90.9194 696.907 217.321 868.961 203.447C1041.02 189.573 1080.49 103.866 1058.03 14.379" stroke="#477EFF"/>
<path d="M-1120.51 5.51602C-1094.09 41.8897 -1033.71 98.0428 -955.218 130.994C-869.86 162.244 -776.863 173.369 -653.467 198.908C-444.692 217.564 -314.204 106.686 -60.449 133.588C200.921 157.047 285.656 150.765 465.346 124.801C645.036 98.8364 697.285 217.542 868.614 205.182C1039.94 192.822 1083.58 114.527 1061.94 19.9304" stroke="#477EFF"/>
<path d="M-1117.61 3.81839C-1092.51 40.8777 -1036.91 97.731 -963.096 136.131C-884.627 173.378 -795.028 194.256 -680.4 213.044C-461.397 229.392 -337.031 103.16 -74.8136 137.832C192.563 170.171 281.575 171.235 461.526 139.133C641.478 107.031 697.676 217.771 868.254 206.977C1038.83 196.184 1086.78 125.562 1065.99 25.6761" stroke="#477EFF"/>
<path d="M-1114.6 2.06339C-1090.86 39.8314 -1040.22 97.4088 -971.24 141.441C-899.893 184.888 -813.807 215.85 -708.245 227.658C-478.666 241.622 -360.629 99.5153 -89.6639 142.22C183.923 183.739 277.357 192.396 457.578 153.949C637.799 115.502 698.081 218.007 867.883 208.834C1037.68 199.661 1090.08 136.97 1070.18 31.6163" stroke="#477EFF"/>
</svg>
