<svg width="1920" height="1080" viewBox="0 0 1920 1080" fill="none" xmlns="http://www.w3.org/2000/svg">
<path d="M-7205 602.688C-6937.92 778.643 -6190.74 1077.77 -5338.62 866.62C-4273.46 602.688 -3428.24 -75.9973 -1979.76 602.688C-1452.94 896.994 -163.017 1378.78 782.114 951.456C1963.53 417.306 2167.76 -185.969 3276.91 121.952C4386.06 429.874 4411.19 1787.24 5545.48 1589.29C6679.76 1391.34 6623.2 310.476 6422.11 121.952" stroke="#477EFF" stroke-width="2"/>
<path d="M-6925.36 -125C-6644.67 358.877 -5781.02 1341.08 -4571.96 1398.9C-3060.62 1471.17 -2359.95 475.133 -600.392 795.623C1159.16 1116.11 1775 1219.8 2909.29 937.016C4043.57 654.231 4448.9 1244.94 5510.91 1197.81C6572.93 1150.68 6931.12 808.192 6811.72 110.654" stroke="#477EFF" stroke-width="2"/>
<path d="M-7197.86 553.961C-6934.02 731.601 -6198.61 1032.45 -5357.97 834.686C-4309.74 585.487 -3472.87 -69.2361 -2045.93 592.862C-1493.98 881.5 -219.099 1325.56 746.822 917.328C1942.99 404.994 2157.74 -180.235 3267.52 112.608C4377.31 405.451 4412.15 1743.25 5544.59 1549.15C6677.03 1355.05 6631.06 293.031 6432.06 91.5136" stroke="#477EFF" stroke-width="2"/>
<path d="M-7190.11 501.056C-6929.78 680.526 -6207.16 983.24 -5379 800.025C-4349.16 566.835 -3521.36 -61.8518 -2117.83 582.224C-1538.57 864.703 -280.034 1267.77 708.476 880.284C1920.68 391.654 2146.84 -173.966 3257.33 102.493C4367.81 378.952 4413.2 1695.49 5543.63 1505.57C6674.07 1315.65 6639.6 274.113 6442.86 58.4783" stroke="#477EFF" stroke-width="2"/>
<path d="M-7181.73 445.919C-6925.2 627.365 -6216.39 932.097 -5401.7 764.586C-4391.71 548.681 -3573.71 -51.8971 -2195.45 572.721C-1586.71 848.551 -345.819 1207.37 667.08 842.271C1896.6 379.234 2135.08 -165.216 3246.32 93.5542C4357.56 352.324 4414.33 1645.9 5542.6 1460.5C6670.87 1275.1 6648.82 255.672 6454.53 24.7939" stroke="#477EFF" stroke-width="2"/>
<path d="M-7172.74 417.63C-6920.28 601.198 -6226.3 908.097 -5426.08 757.448C-4437.41 560.102 -3629.93 -10.2926 -2278.8 593.432C-1638.4 862.123 -416.461 1173.42 622.625 832.37C1870.74 396.814 2122.45 -124.904 3234.5 114.872C4346.55 354.648 4415.54 1623.57 5541.49 1443.02C6667.44 1262.47 6658.73 266.785 6467.06 19.54" stroke="#477EFF" stroke-width="2"/>
<path d="M-7163.13 387.398C-6915.03 573.233 -6236.89 882.448 -5452.14 749.82C-4486.25 572.309 -3690 34.1711 -2367.88 615.567C-1693.65 876.628 -491.956 1137.14 575.117 821.789C1843.09 415.601 2108.96 -81.8228 3221.87 137.654C4334.78 357.131 4416.84 1599.71 5540.3 1424.34C6663.76 1248.97 6669.31 278.662 6480.45 13.9258" stroke="#477EFF" stroke-width="2"/>
<path d="M-7152.91 355.22C-6909.44 543.468 -6248.16 855.148 -5479.87 741.699C-4538.23 585.298 -3753.94 81.4909 -2462.68 639.122C-1752.45 892.063 -572.308 1098.53 524.55 810.525C1813.67 435.594 2094.59 -35.9739 3208.42 161.899C4322.25 359.772 4418.21 1574.31 5539.03 1404.46C6659.85 1234.61 6680.57 291.301 6494.69 7.94824" stroke="#477EFF" stroke-width="2"/>
<path d="M-7142.05 321.098C-6903.5 511.905 -6260.11 826.199 -5509.27 733.088C-4593.34 599.071 -3821.74 131.669 -2563.21 664.1C-1814.8 908.43 -657.503 1057.58 470.94 798.581C1782.48 456.795 2079.36 12.6443 3194.17 187.609C4308.97 362.573 4419.68 1547.38 5537.7 1383.38C6655.72 1219.37 6692.51 304.703 6509.81 1.60938" stroke="#477EFF" stroke-width="2"/>
<path d="M-7130.6 285.037C-6897.24 478.549 -6272.75 795.605 -5540.35 723.99C-4651.61 613.634 -3893.41 184.71 -2669.47 690.506C-1880.7 925.733 -747.565 1014.31 414.263 785.961C1749.5 479.208 2063.26 64.0367 3179.09 214.787C4294.93 365.537 4421.22 1518.92 5536.28 1361.1C6651.33 1203.28 6705.13 318.873 6525.77 -5.08594" stroke="#477EFF" stroke-width="2"/>
<path d="M-7118.51 247.031C-6890.63 443.393 -6286.06 763.361 -5573.1 714.401C-4713 628.98 -3968.93 240.608 -2781.46 718.333C-1950.15 943.969 -842.471 968.701 354.54 772.659C1714.76 502.827 2046.29 118.197 3163.21 243.429C4280.13 368.66 4422.85 1488.92 5534.79 1337.62C6646.72 1186.31 6718.43 333.805 6542.61 -12.1436" stroke="#477EFF" stroke-width="2"/>
<path d="M-7105.82 207.08C-6883.69 406.438 -6300.05 729.467 -5607.53 704.32C-4777.54 645.11 -4048.32 299.363 -2899.17 747.582C-2023.16 963.135 -942.235 920.76 291.759 758.676C1678.23 527.653 2028.46 175.126 3146.52 273.534C4264.58 371.941 4424.56 1457.39 5533.21 1312.93C6641.87 1168.47 6732.41 349.499 6560.3 -19.5635" stroke="#477EFF" stroke-width="2"/>
<path d="M-7092.5 165.185C-6876.41 367.685 -6314.73 693.923 -5643.63 693.749C-4845.21 662.023 -4131.57 360.976 -3022.61 778.254C-2099.71 983.233 -1046.85 870.486 225.927 744.012C1639.93 553.686 2009.75 234.824 3129.01 305.103C4248.27 375.382 4426.36 1424.32 5531.57 1287.05C6636.78 1149.77 6747.08 365.956 6578.85 -27.3447" stroke="#477EFF" stroke-width="2"/>
<path d="M-7078.56 121.345C-6868.79 327.133 -6330.08 656.729 -5681.41 682.685C-4916.03 679.721 -4218.68 425.447 -3151.77 810.347C-2179.82 1004.26 -1156.32 817.878 157.041 728.667C1599.85 580.926 1990.19 297.291 3110.7 338.136C4231.21 378.98 4428.24 1389.72 5529.85 1259.96C6631.46 1130.2 6762.42 383.176 6598.27 -35.4883" stroke="#477EFF" stroke-width="2"/>
<path d="M-7064.01 75.5656C-6860.83 284.788 -6346.12 617.891 -5720.87 671.136C-4989.99 698.207 -4309.65 492.78 -3286.66 843.868C-2263.48 1026.23 -1270.64 762.943 85.0976 712.645C1557.99 609.378 1969.75 362.532 3091.57 372.637C4213.39 382.743 4430.2 1353.59 5528.05 1231.67C6625.9 1109.76 6778.45 401.164 6618.54 -43.9883" stroke="#477EFF" stroke-width="2"/>
<path d="M-7048.84 27.8435C-6852.54 240.645 -6362.84 577.405 -5762 659.097C-5067.08 717.479 -4404.49 562.973 -3427.28 878.812C-2350.69 1049.13 -1389.82 705.676 10.1008 695.945C1514.36 639.039 1948.44 430.543 3071.62 408.604C4194.81 386.666 4432.25 1315.92 5526.17 1202.19C6620.1 1088.46 6795.15 419.916 6639.68 -52.8486" stroke="#477EFF" stroke-width="2"/>
<path d="M-7033.06 -21.8245C-6843.91 194.702 -6380.24 535.267 -5804.8 646.565C-5147.32 737.533 -4503.19 636.022 -3573.63 915.177C-2441.46 1072.96 -1513.85 646.074 -67.9511 678.561C1468.94 669.905 1926.26 501.321 3050.87 446.034C4175.47 390.747 4434.37 1276.72 5524.22 1171.5C6614.07 1066.29 6812.53 439.429 6661.67 -62.0723" stroke="#477EFF" stroke-width="2"/>
<path d="M-7016.65 -71.6592C-6834.93 148.738 -6398.32 493.257 -5849.28 635.319C-5230.69 760.149 -4605.75 713.706 -3725.7 954.742C-2535.77 1099.5 -1642.73 585.917 -149.053 662.274C1421.76 703.755 1903.23 576.646 3029.3 486.705C4155.38 396.764 4436.59 1237.76 5522.2 1141.39C6607.81 1045.02 6830.6 461.483 6684.53 -69.8798" stroke="#477EFF" stroke-width="2"/>
<path d="M-6999.62 -81.6064C-6825.62 142.808 -6417.07 491.429 -5895.43 665.415C-5317.21 825.381 -4712.17 836.08 -3883.49 1037.56C-2633.64 1168.8 -1776.46 565.259 -233.211 687.138C1372.79 780.645 1879.32 696.571 3006.93 570.671C4134.53 444.772 4438.88 1239.1 5520.09 1151.91C6601.3 1064.72 6849.35 526.131 6708.25 -36.2174" stroke="#477EFF" stroke-width="2"/>
<path d="M-6981.99 -91.9092C-6815.98 136.667 -6436.52 489.54 -5943.26 696.608C-5406.86 892.985 -4822.46 962.901 -4047.02 1123.39C-2735.06 1240.62 -1915.06 543.856 -320.429 712.91C1322.05 860.331 1854.54 820.855 2983.73 657.691C4112.92 494.527 4441.26 1240.49 5517.91 1162.82C6594.56 1085.14 6868.77 593.131 6732.82 -1.32776" stroke="#477EFF" stroke-width="2"/>
<path d="M-6963.73 -102.583C-6806 130.302 -6456.64 487.575 -5992.77 728.883C-5499.66 962.947 -4936.61 1094.15 -4216.27 1212.22C-2840.03 1314.95 -2058.5 521.694 -410.697 739.574C1269.53 942.797 1828.89 949.48 2959.73 747.747C4090.56 546.015 4443.72 1241.92 5515.65 1174.09C6587.58 1106.27 6888.87 662.467 6758.26 34.7734" stroke="#477EFF" stroke-width="2"/>
<path d="M-6944.85 -113.61C-6795.67 123.728 -6477.45 485.551 -6043.94 762.257C-5595.59 1035.28 -5054.62 1229.85 -4391.25 1304.06C-2948.55 1391.8 -2206.8 498.789 -504.018 767.148C1215.23 1028.06 1802.38 1082.47 2934.91 840.859C4067.44 599.252 4446.27 1243.4 5513.32 1185.76C6580.37 1128.12 6909.66 734.157 6784.56 72.1037" stroke="#477EFF" stroke-width="2"/>
</svg>
