<svg xmlns="http://www.w3.org/2000/svg" viewBox="0 0 734.64 458.91"><defs><style>.a{fill:#394fa2;}.b{fill:#f0e924;}.c{fill:#ffcc1c;}</style></defs><path class="a" d="M458.42,269.75l-209.36.5c-1.67-.1-18.75-.78-29.61,12.94C211.21,293.6,212,305.37,212.3,308l-2.56,110.81a131.92,131.92,0,0,1-72.68,73,136,136,0,0,1,74.73,74.55L211.28,688a39.19,39.19,0,0,0,6.81,23.15c10.93,15.69,29.71,16.61,32,16.68l212.62-.16a35,35,0,0,0,14.78-6c11.64-8.25,14.13-21.12,14.64-24.17q9.71-34.38,19.4-68.76a324.23,324.23,0,0,0,9.87-58.9c1.51-20.23,3.31-44.41-3.47-74.28A204.75,204.75,0,0,0,487.53,426q-33.7,106.47-67.4,212.94L313.4,636.38a32.1,32.1,0,0,1-16.85-9.7,32.43,32.43,0,0,1-8.17-20.94q2.82-110.8,5.62-221.62a34.46,34.46,0,0,1,8.51-20.59c11.14-12.4,27.33-11.24,29.28-11.07l130.72-2a12.73,12.73,0,0,0,10.55-3.23,12.27,12.27,0,0,0,3.07-12.26q.33-26.21.68-52.42a14.48,14.48,0,0,0-3.75-8.86C467.44,267.69,458.81,269.65,458.42,269.75Z" transform="translate(-137.06 -268.87)"/><circle class="a" cx="238.89" cy="219.15" r="33.62"/><circle class="b" cx="641.4" cy="488.02" r="33.62" transform="translate(-275 13.73) rotate(-22.5)"/><path class="c" d="M568.38,269.23c-3.18-.44-15.34-1.74-26.55,6.13a36.06,36.06,0,0,0-11.23,12.93Q509.06,357.14,487.53,426q12.69,102,25.36,204.09,44.26-140.25,88.51-280.51l28.94.34A91.45,91.45,0,0,0,614,323.36c-10.17-11.47-17.73-13.94-27.91-25.2A94.21,94.21,0,0,1,568.38,269.23Z" transform="translate(-137.06 -268.87)"/><path class="b" d="M568.38,269.23H768.21a53.37,53.37,0,0,1,23.15,15.66,52.18,52.18,0,0,1,9.19,15.66l4.77,123.23q3.06,11.4,6.13,22.81c-5.52,10.71-19.69,34.5-48.34,50.38a117.81,117.81,0,0,1-41.2,13.62q-1.35-64.17-2.72-128.34a41.94,41.94,0,0,0-9.87-19.06c-11.09-12.12-25.78-13.41-29.28-13.62l-49.7.34a94.46,94.46,0,0,0-10-18.45A96,96,0,0,0,594.23,306a90,90,0,0,1-25.85-36.79Z" transform="translate(-137.06 -268.87)"/><path class="c" d="M811.45,446.59a89.68,89.68,0,0,0,60.25,48A81.66,81.66,0,0,0,804,558.93q-1.53,62.64-3.07,125.28c.17,1.45,1.91,19.79-11.91,31a33.39,33.39,0,0,1-20.09,7.15L662.68,723.7Q661.32,681.82,660,640l36.76-1.36a39.75,39.75,0,0,0,26.56-32.34q-.69-47.84-1.37-95.66a117.77,117.77,0,0,0,89.54-64Z" transform="translate(-137.06 -268.87)"/><path class="c" d="M660,640l-2.37,0q-54.75,1-109,.29a18,18,0,0,0-7.3,3.05,18.39,18.39,0,0,0-6.66,9.21q-.52,30.11-1.06,60.21A33.43,33.43,0,0,0,549,725.4l115.4-1.73Z" transform="translate(-137.06 -268.87)"/></svg>